<?xml version="1.0" encoding="UTF-8"?><svg id="Capa_1" xmlns="http://www.w3.org/2000/svg" viewBox="0 0 1076.81 269.21"><defs><style>.cls-1{fill:#fff;}.cls-2{fill:#8f2ca7;}.cls-3{fill:#30088a;}</style></defs><rect class="cls-2" x="573.17" y="1.72" width="496.75" height="265.77" rx="45.17" ry="45.17"/><path class="cls-3" d="m473.57,168.19l-44.73-132.49h-53.95l15.02,39.9c-4.04-5.81-8.61-11.17-13.79-15.99-9.79-9.1-21.06-16.22-33.8-21.34-12.75-5.12-26.07-7.68-39.95-7.68-14.57,0-28.23,2.73-40.98,8.2-12.75,5.46-23.9,12.86-33.46,22.19-8.69,8.49-15.6,18.4-20.9,29.62-4.37-9.72-9.95-18.41-16.9-25.91-8.25-8.91-18.1-16-29.57-21.28-11.47-5.28-23.96-7.92-37.48-7.92H6.89v197.92h116.19c13.52,0,26.02-2.6,37.48-7.79,11.46-5.2,21.31-12.29,29.57-21.28,6.97-7.6,12.57-16.32,16.94-26.05,5.29,11.17,12.12,21.05,20.69,29.51,9.44,9.34,20.6,16.73,33.46,22.19,12.86,5.46,26.69,8.2,41.49,8.2s28.39-2.11,41.49-6.32c13.09-4.21,26.46-11.44,40.12-21.68l-31.07-31.07c-5.92,5.24-13.32,9.39-22.19,12.46-8.88,3.07-17.76,4.61-26.63,4.61-7.29,0-13.95-1.08-19.98-3.24-6.03-2.16-11.44-5.12-16.22-8.88-4.78-3.76-8.83-8.2-12.12-13.32-3.3-5.12-5.86-10.53-7.68-16.22h157.75c.45-3.64.85-7.17,1.19-10.59.34-3.42.51-6.71.51-9.9,0-4.38-.3-8.61-.77-12.77l42.22,112.14h48.49l74.1-197.7h-53.61l-44.73,132.49Zm-313.77-14.12c-2.73,6.29-6.6,11.75-11.62,16.38-5.02,4.64-11.1,8.26-18.26,10.86-7.16,2.6-15.24,3.9-24.23,3.9h-46.55v-103.99h46.55c9.15,0,17.37,1.37,24.68,4.09,7.3,2.73,13.46,6.48,18.48,11.24,5.01,4.76,8.85,10.32,11.51,16.67,2.66,6.35,3.91,13.08,3.76,20.19-.15,7.49-1.59,14.38-4.31,20.67Zm88.61-39.14c3.87-12.52,10.7-22.59,20.49-30.22,9.78-7.62,20.83-11.44,33.12-11.44s23.73,3.81,33.63,11.44c9.9,7.63,16.79,17.7,20.66,30.22h-107.9Z"/><path class="cls-1" d="m804.78,160.27h-73.73v77.52h-51.34v-77.52h-73.39v-51.34h73.39V31.41h51.34v77.52h73.73v51.34Z"/><path class="cls-1" d="m1037.62,160.27h-73.73v77.52h-51.34v-77.52h-73.39v-51.34h73.39V31.41h51.34v77.52h73.73v51.34Z"/></svg>